<svg xmlns="http://www.w3.org/2000/svg" width="8.406" height="16" viewBox="0 0 8.406 16">
  <metadata><?xpacket begin="﻿" id="W5M0MpCehiHzreSzNTczkc9d"?>
<x:xmpmeta xmlns:x="adobe:ns:meta/" x:xmptk="Adobe XMP Core 5.6-c142 79.160924, 2017/07/13-01:06:39        ">
   <rdf:RDF xmlns:rdf="http://www.w3.org/1999/02/22-rdf-syntax-ns#">
      <rdf:Description rdf:about=""/>
   </rdf:RDF>
</x:xmpmeta>
                                                                                                    
                                                                                                    
                                                                                                    
                                                                                                    
                                                                                                    
                                                                                                    
                                                                                                    
                                                                                                    
                                                                                                    
                                                                                                    
                                                                                                    
                                                                                                    
                                                                                                    
                                                                                                    
                                                                                                    
                                                                                                    
                                                                                                    
                                                                                                    
                                                                                                    
                                                                                                    
                           
<?xpacket end="w"?></metadata>
<defs>
    <style>
      .cls-1 {
        fill: #fff;
        fill-rule: evenodd;
      }
    </style>
  </defs>
  <path id="Facebook_Logo" data-name="Facebook Logo" class="cls-1" d="M323.1,1987h-2.018a3.6,3.6,0,0,0-3.732,3.94v1.81h-2.03a0.325,0.325,0,0,0-.317.33v2.63a0.325,0.325,0,0,0,.317.33h2.03v6.63a0.325,0.325,0,0,0,.317.33h2.647a0.325,0.325,0,0,0,.318-0.33v-6.63H323a0.325,0.325,0,0,0,.317-0.33v-2.63a0.33,0.33,0,0,0-.317-0.33h-2.373v-1.54a0.912,0.912,0,0,1,1.108-1.11h1.36a0.325,0.325,0,0,0,.317-0.33v-2.44A0.325,0.325,0,0,0,323.1,1987Z" transform="translate(-315 -1987)"/>
</svg>
