<svg xmlns="http://www.w3.org/2000/svg" width="6" height="10" viewBox="0 0 6 10">
  <metadata><?xpacket begin="﻿" id="W5M0MpCehiHzreSzNTczkc9d"?>
<x:xmpmeta xmlns:x="adobe:ns:meta/" x:xmptk="Adobe XMP Core 5.6-c142 79.160924, 2017/07/13-01:06:39        ">
   <rdf:RDF xmlns:rdf="http://www.w3.org/1999/02/22-rdf-syntax-ns#">
      <rdf:Description rdf:about=""/>
   </rdf:RDF>
</x:xmpmeta>
                                                                                                    
                                                                                                    
                                                                                                    
                                                                                                    
                                                                                                    
                                                                                                    
                                                                                                    
                                                                                                    
                                                                                                    
                                                                                                    
                                                                                                    
                                                                                                    
                                                                                                    
                                                                                                    
                                                                                                    
                                                                                                    
                                                                                                    
                                                                                                    
                                                                                                    
                                                                                                    
                           
<?xpacket end="w"?></metadata>
<defs>
    <style>
      .cls-1 {
        fill: #c0301c;
        fill-rule: evenodd;
      }
    </style>
  </defs>
  <path id="fa-angle-left" class="cls-1" d="M433,2659.17a0.32,0.32,0,0,0,.1.23l0.516,0.5a0.357,0.357,0,0,0,.237.1,0.362,0.362,0,0,0,.237-0.1l4.8-4.67a0.308,0.308,0,0,0,0-.46l-4.8-4.67a0.362,0.362,0,0,0-.237-0.1,0.357,0.357,0,0,0-.237.1l-0.516.5a0.308,0.308,0,0,0,0,.46l4.052,3.94-4.052,3.94A0.339,0.339,0,0,0,433,2659.17Z" transform="translate(-433 -2650)"/>
</svg>
